<?xml version="1.0" encoding="utf-8"?>
<!DOCTYPE svg PUBLIC "-//W3C//DTD SVG 1.1//EN" "http://www.w3.org/Graphics/SVG/1.1/DTD/svg11.dtd">
<svg version="1.1" id="图形" xmlns="http://www.w3.org/2000/svg" xmlns:xlink="http://www.w3.org/1999/xlink" x="0px" y="0px" width="1024px" height="1024px" viewBox="0 0 1024 1024" enable-background="new 0 0 1024 1024" xml:space="preserve">
  <path fill="#11cd6e" d="M792.768 512.736c0 0-93.952-10.752-140.928 0C607.488 522.848 510.656 597.344 510.272 596.96 500.736 589.6 414.08 522.592 371.008 512.736c-46.976-10.752-140.928 0-140.928 0s-11.712-134.848 46.976-302.08c57.024-162.496 234.24-258.752 234.432-258.752 0 0 177.344 96.256 234.112 258.752C804.352 377.824 792.768 512.736 792.768 512.736zM662.08 235.36c-29.76-85.12-102.72-149.632-150.592-184.64C463.552 85.6 390.528 150.24 360.704 235.36 334.528 309.984 323.776 378.08 319.552 427.232 348.672 427.488 372.48 429.728 392.256 434.272c35.328 8.192 78.912 33.088 119.04 60.416 65.344-43.712 97.792-55.424 119.168-60.416 19.84-4.544 43.712-6.784 72.768-6.976C699.072 378.08 688.32 310.176 662.08 235.36zM512-212c-282.368 0-512 229.76-512 512.064C0 582.368 229.632 812 512 812c282.24 0 512-229.632 512-511.936C1024 17.76 794.24-212 512-212zM512 773.984c-261.312 0-473.856-212.672-473.856-473.92 0-261.44 212.544-474.048 473.856-474.048 261.184 0 473.792 212.608 473.792 474.048C985.792 561.312 773.184 773.984 512 773.984z" transform="translate(0, 812) scale(1, -1)"/>
</svg>
